# xmcd
#
# Track frame offsets:
#	150
#	19135
#	40190
#	55150
#	71947
#	86145
#	99696
#	115043
#	136314
#	157369
#	175965
#	197236
#	210749
#	230417
#	245964
#
# Disc length: 3447 seconds
#
# Revision: 0
# Processed by: cddbd v1.5.2PL0 Copyright (c) Steve Scherf et al.
# Submitted via: audiograbber 1.81.03
#
DISCID=e40d750f
DTITLE=DALARAS - STA TRAGOUDIA POU SOU GRAFO
DYEAR=2004
DGENRE=Ethnic
TTITLE0=Which God do you believe in?
TTITLE1=The Hunch (Time has gone by)
TTITLE2=Seven Times
TTITLE3=Like a fever
TTITLE4=You said I'm going
TTITLE5=Shining nights
TTITLE6=I want to come back
TTITLE7=The voices were hushed
TTITLE8=All I know
TTITLE9=Tomrent, mystery
TTITLE10=One more time
TTITLE11=Don't rush to disappear
TTITLE12=In the songs that I write for you
TTITLE13=Alone
TTITLE14=Remember me
EXTD=
EXTT0=
EXTT1=
EXTT2=
EXTT3=
EXTT4=
EXTT5=
EXTT6=
EXTT7=
EXTT8=
EXTT9=
EXTT10=
EXTT11=
EXTT12=
EXTT13=
EXTT14=
PLAYORDER=
